<svg width="90" height="88" viewBox="0 0 90 88" fill="none" xmlns="http://www.w3.org/2000/svg">
<g filter="url(#filter0_d)">
<rect x="2" y="2" width="84" height="82" rx="41" fill="white"/>
<path d="M63.625 35.0625H25.375C24.9523 35.0625 24.5469 34.9143 24.248 34.6506C23.9492 34.3869 23.7812 34.0292 23.7812 33.6562C23.7812 33.2833 23.9492 32.9256 24.248 32.6619C24.5469 32.3982 24.9523 32.25 25.375 32.25H63.625C64.0477 32.25 64.4531 32.3982 64.752 32.6619C65.0508 32.9256 65.2188 33.2833 65.2188 33.6562C65.2188 34.0292 65.0508 34.3869 64.752 34.6506C64.4531 34.9143 64.0477 35.0625 63.625 35.0625Z" fill="#404040"/>
<path d="M63.625 44.9063H25.375C24.9523 44.9063 24.5469 44.7581 24.248 44.4944C23.9492 44.2306 23.7812 43.873 23.7812 43.5C23.7812 43.127 23.9492 42.7694 24.248 42.5056C24.5469 42.2419 24.9523 42.0938 25.375 42.0938H63.625C64.0477 42.0938 64.4531 42.2419 64.752 42.5056C65.0508 42.7694 65.2188 43.127 65.2188 43.5C65.2188 43.873 65.0508 44.2306 64.752 44.4944C64.4531 44.7581 64.0477 44.9063 63.625 44.9063Z" fill="#404040"/>
<path d="M63.625 54.75H25.375C24.9523 54.75 24.5469 54.6018 24.248 54.3381C23.9492 54.0744 23.7812 53.7167 23.7812 53.3438C23.7812 52.9708 23.9492 52.6131 24.248 52.3494C24.5469 52.0857 24.9523 51.9375 25.375 51.9375H63.625C64.0477 51.9375 64.4531 52.0857 64.752 52.3494C65.0508 52.6131 65.2188 52.9708 65.2188 53.3438C65.2188 53.7167 65.0508 54.0744 64.752 54.3381C64.4531 54.6018 64.0477 54.75 63.625 54.75Z" fill="#404040"/>
<rect x="3" y="3" width="82" height="80" rx="40" stroke="#ECECEC" stroke-width="2"/>
</g>
<defs>
<filter id="filter0_d" x="0" y="0" width="90" height="88" filterUnits="userSpaceOnUse" color-interpolation-filters="sRGB">
<feFlood flood-opacity="0" result="BackgroundImageFix"/>
<feColorMatrix in="SourceAlpha" type="matrix" values="0 0 0 0 0 0 0 0 0 0 0 0 0 0 0 0 0 0 127 0" result="hardAlpha"/>
<feOffset dx="1" dy="1"/>
<feGaussianBlur stdDeviation="1.5"/>
<feComposite in2="hardAlpha" operator="out"/>
<feColorMatrix type="matrix" values="0 0 0 0 0 0 0 0 0 0 0 0 0 0 0 0 0 0 0.25 0"/>
<feBlend mode="normal" in2="BackgroundImageFix" result="effect1_dropShadow"/>
<feBlend mode="normal" in="SourceGraphic" in2="effect1_dropShadow" result="shape"/>
</filter>
</defs>
</svg>
