<svg width="31" height="31" viewBox="0 0 31 31" fill="none" xmlns="http://www.w3.org/2000/svg">
<g clip-path="url(#clip0)">
<path d="M6.03577 14.1059C6.03577 14.3243 10.6951 17.0908 9.53029 24.5895C9.53029 24.5895 7.29942 30.5622 10.6224 30.8505C10.6224 30.8505 17.3929 31.9425 17.9026 28.2295C17.9026 28.2295 16.1449 18.7507 19.6827 17.0469C20.3904 16.7061 21.0763 16.3256 21.6825 15.8259C22.6181 15.0546 23.9707 14.1059 24.9644 14.1059L20.4506 12.8683C20.4506 12.8683 14.9177 21.5347 16.4465 13.525L15.5001 11.1938L12.2239 12.2858C12.2239 12.2858 13.6072 20.9492 10.4039 15.7075L7.56461 11.1937L6.03577 14.1059Z" fill="#A0D468"/>
<path d="M11.4488 30.4377C8.12584 30.1495 10.3567 24.1767 10.3567 24.1767C11.5216 16.678 6.86226 13.9116 6.86226 13.6931L7.89673 11.7227L7.56442 11.1943L6.03564 14.1064C6.03564 14.3249 10.695 17.0914 9.5301 24.59C9.5301 24.59 7.29923 30.5628 10.6222 30.8511C10.6222 30.8511 14.5954 31.4897 16.683 30.1189C14.5217 30.9315 11.4488 30.4377 11.4488 30.4377Z" fill="#83B44F"/>
<path d="M24.0361 14.3208C24.3625 14.1909 24.6787 14.1066 24.9642 14.1066L24.6166 14.0114C24.4237 14.1012 24.2298 14.2057 24.0361 14.3208Z" fill="#44C4A1"/>
<path d="M3.22381 7.16985C3.22381 7.16985 2.56408 1.47987 9.82082 3.54147C9.82082 3.54147 11.0578 2.05712 12.7895 2.1396C12.7895 2.1396 14.5338 -2.06602 18.8156 1.31497C18.8156 1.31497 23.2623 1.47987 23.1798 4.44858C23.1798 4.44858 30.2716 1.56236 28.7048 8.32434C28.7048 8.32434 31.756 11.9527 26.8907 12.365C26.8907 12.365 24.1694 17.7653 19.6339 13.0861C19.6339 13.0861 18.5619 11.9105 17.6548 13.0861C17.6548 13.0861 15.0985 15.7862 11.5526 13.0861C11.5526 13.0861 9.85008 12.1618 9.31805 13.1608C8.97448 13.806 8.46503 14.3522 7.77816 14.6023C6.21112 15.1728 3.79774 15.4151 3.20819 11.8702C3.20819 11.8702 -0.981809 9.47883 3.22381 7.16985Z" fill="#76A336"/>
<path d="M9.4077 4.78152C9.4077 4.78152 10.6447 3.29723 12.3764 3.37965C12.3764 3.37965 14.1208 -0.825904 18.4025 2.55502C18.4025 2.55502 22.8492 2.71992 22.7668 5.68863C22.7668 5.68863 29.8585 2.80247 28.2918 9.56432C28.2918 9.56432 29.1242 10.5562 29.2249 11.5616C30.4229 10.3674 28.7051 8.32436 28.7051 8.32436C30.2719 1.56252 23.1801 4.44868 23.1801 4.44868C23.2625 1.47997 18.8159 1.31507 18.8159 1.31507C14.5341 -2.06586 12.7897 2.13969 12.7897 2.13969C11.058 2.05728 9.82104 3.54157 9.82104 3.54157C4.71884 2.0921 3.53151 4.4733 3.27539 6.01584C3.95696 4.76292 5.5812 3.69435 9.4077 4.78152Z" fill="#5F8529"/>
<path d="M2.81067 8.40991C2.81067 8.40991 2.76135 7.97771 2.84032 7.39563C1.65452 8.14208 1.30314 8.88832 1.35901 9.55189C1.6522 9.17641 2.11453 8.79214 2.81067 8.40991Z" fill="#5F8529"/>
</g>
<defs>
<clipPath id="clip0">
<rect width="31" height="31" fill="white"/>
</clipPath>
</defs>
</svg>
