<svg width="65" height="66" viewBox="0 0 65 66" fill="none" xmlns="http://www.w3.org/2000/svg">
<g clip-path="url(#clip0)">
<path fill-rule="evenodd" clip-rule="evenodd" d="M40.9503 40.1034C40.4895 38.6524 40.492 37.0561 41.0336 35.549C41.1246 35.2954 41.3126 35.0884 41.5563 34.9735C41.7999 34.8586 42.0793 34.845 42.3328 34.9361C42.5864 35.0271 42.7934 35.2151 42.9084 35.4587C43.0233 35.7024 43.0368 35.9818 42.9458 36.2353C42.1693 38.3963 42.9296 40.7985 44.8104 42.1149C46.6911 43.4312 49.2083 43.323 50.9716 41.853C52.7349 40.383 53.2919 37.9265 52.3364 35.8386C51.3809 33.7507 49.1578 32.568 46.8933 32.9425C46.7597 32.969 46.6221 32.9683 46.4888 32.9405C46.3555 32.9128 46.2291 32.8585 46.1172 32.7809C46.0052 32.7034 45.91 32.6041 45.8373 32.489C45.7645 32.3739 45.7156 32.2452 45.6935 32.1109C45.6714 31.9765 45.6766 31.839 45.7087 31.7067C45.7408 31.5743 45.7992 31.4498 45.8804 31.3405C45.9616 31.2311 46.064 31.1393 46.1814 31.0703C46.2988 31.0013 46.4289 30.9567 46.564 30.939C49.7235 30.4166 52.8523 32.0812 54.1851 34.9936C55.5179 37.9059 54.7328 41.3654 52.2729 43.4161C49.813 45.4669 46.2718 45.6136 43.648 43.7771C42.3362 42.8589 41.4111 41.5544 40.9503 40.1034H40.9503Z" fill="#E45100"/>
<path fill-rule="evenodd" clip-rule="evenodd" d="M8.35113 11.5474C8.13447 11.5562 7.92632 11.6342 7.75714 11.7698C7.58795 11.9054 7.46662 12.0916 7.41088 12.3012L4.68933 22.4574C4.64673 22.5886 4.63128 22.7271 4.64393 22.8644C4.65659 23.0018 4.69708 23.135 4.76294 23.2562C4.82879 23.3774 4.91864 23.4838 5.02699 23.5691C5.13535 23.6545 5.25993 23.7169 5.39316 23.7525C5.5264 23.7881 5.6655 23.7962 5.80196 23.7763C5.93843 23.7564 6.06941 23.7089 6.18693 23.6367C6.30445 23.5645 6.40604 23.4692 6.48551 23.3565C6.56498 23.2438 6.62066 23.116 6.64916 22.9811L9.1089 13.8048L31.6629 19.8509L46.7029 23.8777L48.6548 37.6363C48.6659 37.7744 48.7052 37.9089 48.7702 38.0313C48.8352 38.1537 48.9246 38.2615 49.0329 38.348C49.1411 38.4346 49.2659 38.498 49.3996 38.5345C49.5333 38.571 49.6731 38.5798 49.8103 38.5603C49.9475 38.5407 50.0793 38.4934 50.1975 38.421C50.3157 38.3487 50.4179 38.2528 50.4977 38.1395C50.5775 38.0262 50.6332 37.8978 50.6615 37.7621C50.6898 37.6264 50.6901 37.4864 50.6622 37.3506L48.6191 22.9295C48.5909 22.7327 48.5056 22.5485 48.3737 22.3997C48.2419 22.2509 48.0692 22.144 47.8772 22.0924L32.1866 17.8911L8.65266 11.5831C8.55451 11.5561 8.45286 11.5441 8.35113 11.5474Z" fill="#404040"/>
<path fill-rule="evenodd" clip-rule="evenodd" d="M1.01562 22.7188C0.746273 22.7188 0.487961 22.8258 0.2975 23.0163C0.107039 23.2068 2.69312e-05 23.465 0 23.7344V37.9531V52.1719C2.69312e-05 52.4412 0.107039 52.6995 0.2975 52.89C0.487961 53.0804 0.746273 53.1875 1.01562 53.1875H25.3827H41.6248C41.8043 53.188 41.9808 53.1409 42.1362 53.051C42.2916 52.9611 42.4204 52.8316 42.5094 52.6757L50.6344 38.457C50.7221 38.3035 50.7682 38.1299 50.7682 37.9531C50.7682 37.7764 50.7221 37.6027 50.6344 37.4493L42.5094 23.2305C42.4204 23.0746 42.2916 22.9452 42.1362 22.8553C41.9808 22.7653 41.8043 22.7183 41.6248 22.7188H25.3827H1.01562ZM2.03125 24.75H25.3827H41.0376L48.5834 37.9531L41.0376 51.1563H25.3827H2.03125V37.9531V24.75Z" fill="#E45100"/>
<path fill-rule="evenodd" clip-rule="evenodd" d="M44.6716 37.9535C44.6716 35.7259 42.8447 33.8989 40.6171 33.8989C38.3895 33.8989 36.5625 35.7259 36.5625 37.9535C36.5625 40.1811 38.3894 42.008 40.6171 42.0081C42.8447 42.0081 44.6716 40.1811 44.6716 37.9535ZM42.6404 37.9535C42.6404 39.0834 41.7469 39.9768 40.6171 39.9768C39.4872 39.9768 38.5938 39.0834 38.5938 37.9535C38.5938 36.8236 39.4872 35.9302 40.6171 35.9302C41.7469 35.9302 42.6404 36.8236 42.6404 37.9535ZM52.7966 36.9379V38.9691H57.8748V36.9379H52.7966Z" fill="#E45100"/>
<path fill-rule="evenodd" clip-rule="evenodd" d="M56.8591 37.9374C56.8612 37.804 56.8895 37.6724 56.9425 37.5499C56.9955 37.4275 57.072 37.3167 57.1678 37.2239C57.2636 37.1311 57.3767 37.058 57.5007 37.0089C57.6248 36.9598 57.7573 36.9355 57.8906 36.9376C59.7758 36.9376 61.5842 37.6875 62.9172 39.0204C64.2502 40.3535 65 42.1619 65 44.047C65.0019 44.1816 64.977 44.3152 64.9268 44.4401C64.8767 44.565 64.8022 44.6787 64.7077 44.7745C64.6132 44.8703 64.5006 44.9465 64.3764 44.9984C64.2522 45.0504 64.119 45.0771 63.9844 45.0771C63.8498 45.0771 63.7165 45.0504 63.5924 44.9984C63.4682 44.9465 63.3556 44.8703 63.2611 44.7745C63.1666 44.6787 63.0921 44.565 63.0419 44.4401C62.9917 44.3152 62.9668 44.1816 62.9687 44.047C62.9687 42.6998 62.4336 41.4092 61.481 40.4566C60.5284 39.504 59.2378 38.9689 57.8906 38.9689C57.7546 38.971 57.6195 38.9458 57.4934 38.8947C57.3673 38.8437 57.2527 38.7677 57.1565 38.6715C57.0603 38.5752 56.9844 38.4607 56.9333 38.3346C56.8822 38.2085 56.857 38.0734 56.8591 37.9374Z" fill="#E45100"/>
<path d="M11.0455 31.7321C9.8616 32.916 9.85878 34.8656 11.0434 36.0494C12.2273 37.2333 14.1797 37.2332 15.3636 36.0494C16.5474 34.8655 16.5446 32.916 15.3615 31.7321C14.1777 30.5483 12.2309 30.5483 11.047 31.7321H11.0455ZM12.4817 33.1684C12.8894 32.7608 13.5161 32.7608 13.9237 33.1684C14.3313 33.576 14.3341 34.2055 13.9257 34.6131C13.5181 35.0207 12.8858 35.0207 12.4782 34.6131C12.0706 34.2055 12.0734 33.576 12.4802 33.1684H12.4817ZM21.2006 41.8873C20.0168 43.0711 20.0168 45.0236 21.2006 46.2074C22.3844 47.3912 24.3341 47.3884 25.518 46.2054C26.7018 45.0216 26.7018 43.0747 25.518 41.8909C24.3341 40.707 22.3845 40.7041 21.2006 41.8888V41.8873ZM22.6369 43.3235C23.0445 42.916 23.6741 42.9188 24.0817 43.3257C24.4892 43.7332 24.4893 44.3599 24.0816 44.7675C23.6741 45.1751 23.0445 45.1778 22.6369 44.7695C22.2293 44.3619 22.2293 43.7296 22.6369 43.3221V43.3235Z" fill="#404040"/>
<path fill-rule="evenodd" clip-rule="evenodd" d="M25.3589 30.848C25.0953 30.8554 24.8449 30.9649 24.6606 31.1535L10.4657 45.3485C10.3683 45.4421 10.2905 45.5541 10.2369 45.6781C10.1833 45.8021 10.155 45.9357 10.1537 46.0708C10.1523 46.2059 10.1779 46.3399 10.229 46.465C10.2801 46.5901 10.3556 46.7037 10.4511 46.7992C10.5467 46.8948 10.6603 46.9702 10.7854 47.0213C10.9104 47.0724 11.0444 47.098 11.1795 47.0967C11.3146 47.0953 11.4481 47.0669 11.5721 47.0134C11.6962 46.9598 11.8083 46.882 11.9019 46.7846L26.0968 32.5897C26.2428 32.4469 26.3424 32.2634 26.3826 32.0631C26.4228 31.8629 26.4016 31.6552 26.322 31.4672C26.2423 31.2791 26.1078 31.1194 25.936 31.009C25.7641 30.8985 25.563 30.8424 25.3589 30.848Z" fill="#404040"/>
</g>
<defs>
<clipPath id="clip0">
<rect width="65" height="65" fill="white" transform="translate(0 0.375)"/>
</clipPath>
</defs>
</svg>
