<svg width="29" height="27" viewBox="0 0 29 27" fill="none" xmlns="http://www.w3.org/2000/svg">
<path d="M24.518 1.44176C21.337 -0.372936 17.1413 0.178194 14.5047 2.7103C11.8554 0.18022 7.65304 -0.365018 4.48269 1.44176C1.71965 3.00547 0 6.00014 0 9.25167C0 10.1827 0.144915 11.1078 0.401275 11.9048C1.75364 18.1528 10.4354 26.375 14.5047 26.375C18.5653 26.375 27.2405 18.1521 28.5696 12.0106C28.8546 11.1069 29 10.184 29 9.25075C29.0002 6.00014 27.2821 3.00437 24.518 1.44176ZM26.5948 11.4131C25.3364 17.2279 17.1381 24.1826 14.5047 24.1826C11.5742 24.1826 3.5894 16.8968 2.37625 11.3074C2.15957 10.6333 2.05537 9.94312 2.05537 9.25296C2.05537 6.81477 3.35374 4.56145 5.44327 3.37854C6.41627 2.82226 7.52314 2.53518 8.64209 2.53518C10.6115 2.53518 12.4654 3.42697 13.73 4.98571L14.5137 5.94305L15.2857 4.98571C17.255 2.54641 20.8725 1.84503 23.5614 3.37854C25.6509 4.56145 26.9495 6.81477 26.9495 9.25296C26.9451 9.94183 26.8403 10.6322 26.5948 11.4131ZM25.7924 9.25167C25.7924 9.82508 25.7022 10.4014 25.5226 10.9686C25.4492 11.1993 25.2534 11.3356 25.0354 11.3356C24.9807 11.3356 24.9267 11.3315 24.8711 11.3115C24.6013 11.2146 24.4595 10.9023 24.5503 10.6161C24.6947 10.1608 24.7721 9.69913 24.7721 9.25167C24.7721 7.61449 23.9011 6.10602 22.4997 5.31808C21.8352 4.93931 21.116 4.74467 20.361 4.74467C20.0738 4.74467 19.8504 4.50382 19.8504 4.19962C19.8504 3.89524 20.0738 3.65549 20.361 3.65549C21.2824 3.65549 22.1638 3.88621 22.9812 4.3508C24.7143 5.33097 25.7924 7.20736 25.7924 9.25167Z" fill="#FF3C5E"/>
<path fill-rule="evenodd" clip-rule="evenodd" d="M26.5948 11.4131C25.3364 17.2279 17.1381 24.1826 14.5047 24.1826C11.5742 24.1826 3.5894 16.8968 2.37625 11.3074C2.15957 10.6333 2.05537 9.94312 2.05537 9.25296C2.05537 6.81477 3.35374 4.56145 5.44327 3.37854C6.41627 2.82226 7.52314 2.53518 8.64209 2.53518C10.6115 2.53518 12.4654 3.42697 13.73 4.98571L14.5137 5.94305L15.2857 4.98571C17.255 2.54641 20.8725 1.84503 23.5614 3.37854C25.6509 4.56145 26.9495 6.81477 26.9495 9.25296C26.9451 9.94183 26.8403 10.6322 26.5948 11.4131ZM25.5226 10.9686C25.7022 10.4014 25.7924 9.82508 25.7924 9.25167C25.7924 7.20736 24.7143 5.33097 22.9812 4.3508C22.1638 3.88621 21.2824 3.65549 20.361 3.65549C20.0738 3.65549 19.8504 3.89524 19.8504 4.19962C19.8504 4.50382 20.0738 4.74467 20.361 4.74467C21.116 4.74467 21.8352 4.93931 22.4997 5.31808C23.9011 6.10602 24.7721 7.61449 24.7721 9.25167C24.7721 9.69913 24.6947 10.1608 24.5503 10.6161C24.4595 10.9023 24.6013 11.2146 24.8711 11.3115C24.9267 11.3315 24.9807 11.3356 25.0354 11.3356C25.2534 11.3356 25.4492 11.1993 25.5226 10.9686Z" fill="#FF3C5E"/>
</svg>
