<svg width="37" height="37" viewBox="0 0 37 37" fill="none" xmlns="http://www.w3.org/2000/svg">
<g clip-path="url(#clip0)">
<path d="M25.0908 13.2322C24.0005 13.9501 22.8922 15.1566 21.9659 17.1444C21.8258 17.445 21.7177 17.759 21.6186 18.0754C20.9009 20.3653 16.6508 31.3264 0.796204 32.3936C0.421931 32.4188 0.104467 32.6818 0.0213474 33.0476C-0.0814453 33.4999 0.198884 33.9524 0.651061 34.0557C4.20282 34.8673 17.8475 36.9277 25.367 29.1909C27.87 26.6154 35.4468 20.2006 32.8961 15.2771C31.4176 12.4238 27.7747 11.4649 25.0908 13.2322Z" fill="#D15241"/>
<path d="M32.7431 13.721C32.6437 13.721 32.5444 13.6817 32.4706 13.6039C32.3277 13.4534 32.3339 13.2156 32.4844 13.0725C35.379 10.3239 36.6144 7.95952 36.1561 6.04439C35.6001 3.72148 32.6653 2.82202 32.6358 2.81325C32.4369 2.75415 32.3237 2.54501 32.3829 2.34606C32.442 2.1468 32.6521 2.03413 32.8504 2.09323C32.9882 2.134 36.2311 3.12993 36.8869 5.8693C37.4124 8.06413 36.1051 10.6711 33.0018 13.6179C32.9292 13.6868 32.8362 13.721 32.7431 13.721Z" fill="#76A336"/>
<path d="M31.5862 12.3887L28.4238 12.3626C28.1782 12.3605 28.0985 12.6918 28.3181 12.8018L30.1461 13.1483L30.5524 14.7898L32.4863 15.2611L33.0588 17.3954C33.171 17.5798 33.4522 17.5243 33.4859 17.3112L33.8436 15.0544C33.9773 14.211 33.6338 13.3628 32.9508 12.8501C32.557 12.5545 32.0788 12.3927 31.5862 12.3887Z" fill="#A0D468"/>
<path d="M9.34752 33.4543C9.10251 33.4543 8.89005 33.2722 8.85876 33.0227C8.82479 32.7524 9.01631 32.5057 9.28661 32.4715C17.5271 31.4338 19.2029 28.9507 19.2188 28.9261C19.3635 28.6992 19.6659 28.6269 19.8954 28.7686C20.1247 28.9098 20.2004 29.2055 20.0629 29.4368C19.9928 29.5548 18.2451 32.3381 9.40994 33.4505C9.38892 33.4529 9.36822 33.4543 9.34752 33.4543Z" fill="#E56353"/>
</g>
<defs>
<clipPath id="clip0">
<rect width="37" height="37" fill="white"/>
</clipPath>
</defs>
</svg>
