<svg width="22" height="21" viewBox="0 0 22 21" fill="none" xmlns="http://www.w3.org/2000/svg">
<path d="M6.27091 13.7479H7.22549L7.56382 13.4329C6.11382 11.7995 5.36466 9.5712 5.77549 7.20287C6.34341 3.95954 9.14674 1.36954 12.5301 0.972869C17.6413 0.366203 21.943 4.51954 21.3147 9.45454C20.9038 12.7212 18.2213 15.4279 14.8622 15.9762C12.4092 16.3729 10.1013 15.6495 8.40966 14.2495L8.08341 14.5762V15.4979L2.94799 20.4562C2.45257 20.9345 1.64299 20.9345 1.14757 20.4562C0.652157 19.9779 0.652157 19.1962 1.14757 18.7179L6.27091 13.7479ZM13.5209 13.7479C16.5297 13.7479 18.9584 11.4029 18.9584 8.49787C18.9584 5.59287 16.5297 3.24787 13.5209 3.24787C10.5122 3.24787 8.08341 5.59287 8.08341 8.49787C8.08341 11.4029 10.5122 13.7479 13.5209 13.7479Z" fill="#CCCCCC"/>
</svg>
