<svg width="52" height="45" viewBox="0 0 52 45" fill="none" xmlns="http://www.w3.org/2000/svg">
<path d="M40.625 9.95801H32.5V8.2002C32.5 6.77637 31.1695 5.625 29.5242 5.625H22.4656C20.8305 5.625 19.5 6.77637 19.5 8.2002V9.95801H11.375V11.25H13.518L15.9148 36.7998C15.9148 38.2236 17.2453 39.375 18.8906 39.375H33.2109C34.8563 39.375 36.1867 38.2236 36.1867 36.7998L38.5531 11.25H40.625V9.95801ZM20.9828 8.2002C20.9828 7.48828 21.6531 6.9082 22.4656 6.9082H29.5242C30.3469 6.9082 31.007 7.48828 31.007 8.2002V9.95801H20.9828V8.2002ZM34.6938 36.7295V36.7998C34.6938 37.5117 34.0234 38.0918 33.2109 38.0918H18.8906C18.068 38.0918 17.4078 37.5117 17.4078 36.7998V36.7295L15.0008 11.25H37.0602L34.6938 36.7295Z" fill="#4A4A4A"/>
<path d="M25.2891 14.0625H26.7109V35.2441H25.2891V14.0625ZM32.5 14.0625H31.0172L29.9305 35.2441H31.4133L32.5 14.0625ZM20.9727 14.0625H19.5L20.5867 35.2441H22.0695L20.9727 14.0625Z" fill="#4A4A4A"/>
</svg>
