<svg width="40" height="40" viewBox="0 0 80 80" fill="none" xmlns="http://www.w3.org/2000/svg">
<circle cx="40" cy="40" r="40" fill="#E45100"/>
<path d="M56.5 32.125H23.5C23.1353 32.125 22.7856 31.9867 22.5277 31.7406C22.2699 31.4944 22.125 31.1606 22.125 30.8125C22.125 30.4644 22.2699 30.1306 22.5277 29.8844C22.7856 29.6383 23.1353 29.5 23.5 29.5H56.5C56.8647 29.5 57.2144 29.6383 57.4723 29.8844C57.7301 30.1306 57.875 30.4644 57.875 30.8125C57.875 31.1606 57.7301 31.4944 57.4723 31.7406C57.2144 31.9867 56.8647 32.125 56.5 32.125Z" fill="white"/>
<path d="M56.5 41.3125H23.5C23.1353 41.3125 22.7856 41.1742 22.5277 40.9281C22.2699 40.6819 22.125 40.3481 22.125 40C22.125 39.6519 22.2699 39.3181 22.5277 39.0719C22.7856 38.8258 23.1353 38.6875 23.5 38.6875H56.5C56.8647 38.6875 57.2144 38.8258 57.4723 39.0719C57.7301 39.3181 57.875 39.6519 57.875 40C57.875 40.3481 57.7301 40.6819 57.4723 40.9281C57.2144 41.1742 56.8647 41.3125 56.5 41.3125Z" fill="white"/>
<path d="M56.5 50.5H23.5C23.1353 50.5 22.7856 50.3617 22.5277 50.1156C22.2699 49.8694 22.125 49.5356 22.125 49.1875C22.125 48.8394 22.2699 48.5056 22.5277 48.2594C22.7856 48.0133 23.1353 47.875 23.5 47.875H56.5C56.8647 47.875 57.2144 48.0133 57.4723 48.2594C57.7301 48.5056 57.875 48.8394 57.875 49.1875C57.875 49.5356 57.7301 49.8694 57.4723 50.1156C57.2144 50.3617 56.8647 50.5 56.5 50.5Z" fill="white"/>
</svg>
