<svg width="38" height="36" viewBox="0 0 48 46" fill="none" xmlns="http://www.w3.org/2000/svg">
<path d="M39.3365 35.4346H14.1704L8.02193 3.66305C7.94806 3.28135 7.73395 2.93612 7.41692 2.68754C7.0999 2.43895 6.70007 2.3028 6.28714 2.3028H2.30872" stroke="white" stroke-width="3" stroke-linecap="round" stroke-linejoin="round"/>
<path d="M16.4145 43.7177C18.849 43.7177 20.8226 41.8635 20.8226 39.5762C20.8226 37.289 18.849 35.4348 16.4145 35.4348C13.98 35.4348 12.0065 37.289 12.0065 39.5762C12.0065 41.8635 13.98 43.7177 16.4145 43.7177Z" stroke="white" stroke-width="3" stroke-linecap="round" stroke-linejoin="round"/>
<path d="M39.3369 43.7177C41.7714 43.7177 43.745 41.8635 43.745 39.5762C43.745 37.289 41.7714 35.4348 39.3369 35.4348C36.9024 35.4348 34.9288 37.289 34.9288 39.5762C34.9288 41.8635 36.9024 43.7177 39.3369 43.7177Z" stroke="white" stroke-width="3" stroke-linecap="round" stroke-linejoin="round"/>
<path d="M12.5673 27.1518H40.2402C41.0661 27.1518 41.8658 26.8795 42.4998 26.3823C43.1339 25.8851 43.5621 25.1947 43.7098 24.4313L46.3892 10.5859H9.36145" stroke="white" stroke-width="3" stroke-linecap="round" stroke-linejoin="round"/>
</svg>
