<svg width="72" height="75" viewBox="0 0 80 75" fill="none" xmlns="http://www.w3.org/2000/svg">
<path d="M29.1003 57.1374V38.6167H26.2915C25.4383 38.6167 24.7472 37.9715 24.7472 37.1784V31.3143C24.7472 30.5244 25.4417 29.8776 26.2915 29.8776H29.1003V25.1624C29.1003 20.7047 32.9824 17.0908 37.769 17.0908H44.9769C45.8301 17.0908 46.5212 17.7345 46.5212 18.5291V24.3917C46.5212 25.1863 45.8301 25.8299 44.9769 25.8299H40.7109C40.2245 25.8299 39.8235 26.2034 39.8235 26.6563V29.8808L44.8831 29.8776C45.7363 29.9332 46.4274 30.4688 46.4274 31.3143C46.2772 33.3008 46.069 35.3079 45.8882 37.2976C45.8216 38.0398 45.151 38.6167 44.3507 38.6167H39.8235V57.1374C39.8235 57.9272 39.1307 58.574 38.2809 58.574L30.6446 58.5756C29.7931 58.5756 29.1003 57.9304 29.1003 57.1374ZM31.1173 56.7003H37.8065V36.7382H43.9172L44.3694 31.7513H37.8065V26.6563C37.8065 25.1624 39.1068 23.9514 40.7109 23.9514H44.5042V18.9693H37.769C34.095 18.9693 31.1173 21.7424 31.1173 25.1624V31.7545H26.7642V36.7382H31.1173V56.7003Z" fill="#666666"/>
</svg>
