<svg width="58" height="54" viewBox="0 0 53 54" fill="none" xmlns="http://www.w3.org/2000/svg">
<path d="M21.1044 7.25699C13.7526 7.25699 7.80438 12.7878 7.80438 19.6237V33.757C7.80438 40.5928 13.7526 46.1237 21.1044 46.1237H36.3044C43.6561 46.1237 49.6044 40.5928 49.6044 33.757V19.6237C49.6044 12.7878 43.6561 7.25699 36.3044 7.25699H21.1044ZM21.1044 9.02366H36.3044C42.6364 9.02366 47.7044 13.736 47.7044 19.6237V33.757C47.7044 39.6447 42.6364 44.357 36.3044 44.357H21.1044C14.7723 44.357 9.70438 39.6447 9.70438 33.757V19.6237C9.70438 13.736 14.7723 9.02366 21.1044 9.02366Z" fill="#666666"/>
<path fill-rule="evenodd" clip-rule="evenodd" d="M18.2545 26.6903C18.2545 21.3344 22.9443 16.9736 28.7045 16.9736C34.4646 16.9736 39.1545 21.3344 39.1545 26.6903C39.1545 32.0462 34.4646 36.407 28.7045 36.407C22.9443 36.407 18.2545 32.0462 18.2545 26.6903ZM37.2545 26.6903C37.2545 22.2892 33.4377 18.7403 28.7045 18.7403C23.9712 18.7403 20.1545 22.2892 20.1545 26.6903C20.1545 31.0914 23.9712 34.6403 28.7045 34.6403C33.4377 34.6403 37.2545 31.0914 37.2545 26.6903Z" fill="#666666"/>
<path fill-rule="evenodd" clip-rule="evenodd" d="M40.1045 13.4403C38.5417 13.4403 37.2545 14.6372 37.2545 16.0903C37.2545 17.5434 38.5417 18.7403 40.1045 18.7403C41.6672 18.7403 42.9545 17.5434 42.9545 16.0903C42.9545 14.6372 41.6672 13.4403 40.1045 13.4403ZM41.0545 16.0903C41.0545 15.592 40.6404 15.207 40.1045 15.207C39.5685 15.207 39.1545 15.592 39.1545 16.0903C39.1545 16.5886 40.1045 16.9736 40.1045 16.9736C40.6404 16.9736 41.0545 16.5886 41.0545 16.0903Z" fill="#666666"/>
<path d="M40.1045 15.207C40.6404 15.207 41.0545 15.592 41.0545 16.0903C41.0545 16.5886 40.6404 16.9736 40.1045 16.9736C40.1045 16.9736 39.1545 16.5886 39.1545 16.0903C39.1545 15.592 39.5685 15.207 40.1045 15.207Z" fill="#666666"/>
</svg>
