<svg width="36" height="41" viewBox="0 0 39 41" fill="none" xmlns="http://www.w3.org/2000/svg">
<path d="M26.6884 26.8716L23.1637 27.9595C22.7408 28.0899 22.2844 28.0906 21.8644 27.9615C21.4444 27.8324 21.0837 27.5806 20.8375 27.2445L12.3959 15.7276C12.1497 15.3916 12.0314 14.9898 12.059 14.5835C12.0865 14.1772 12.2584 13.7887 12.5485 13.4772L14.9689 10.8826C15.4045 10.4156 15.6628 9.83288 15.7043 9.22336C15.7457 8.61383 15.5681 8.01105 15.1985 7.50709L11.4077 2.33531C11.1855 2.03206 10.8997 1.77255 10.5666 1.5716C10.2334 1.37064 9.85942 1.23219 9.466 1.16415C9.07258 1.09611 8.66743 1.09981 8.27368 1.17505C7.87994 1.25028 7.50533 1.39557 7.17124 1.60262L4.58364 3.20423C3.07032 4.14159 1.93693 5.51114 1.36369 7.09509C0.790451 8.67905 0.810269 10.3865 1.41999 11.9459L2.13868 13.785C5.80887 23.1768 12.067 31.5191 20.3129 38.0119L20.5017 38.1612C23.3186 40.3791 27.3573 40.5732 30.4178 38.6787L33.1203 37.0048C33.4545 36.7979 33.7416 36.5332 33.9653 36.226C34.189 35.9188 34.3449 35.575 34.424 35.2142C34.5031 34.8535 34.504 34.4829 34.4265 34.1236C34.349 33.7643 34.1946 33.4233 33.9723 33.1201L30.1791 27.9451C29.81 27.4404 29.2689 27.0622 28.6385 26.8683C28.0081 26.6745 27.3232 26.6756 26.6884 26.8716V26.8716Z" stroke="black" stroke-width="1.6"/>
</svg>
